<?xml version="1.0" standalone="no"?>
<!DOCTYPE svg PUBLIC "-//W3C//DTD SVG 20010904//EN"
 "http://www.w3.org/TR/2001/REC-SVG-20010904/DTD/svg10.dtd">
<svg version="1.0" xmlns="http://www.w3.org/2000/svg"
 width="512.000000pt" height="512.000000pt" viewBox="0 0 512.000000 512.000000"
 preserveAspectRatio="xMidYMid meet">
<metadata>
Created by potrace 1.14, written by Peter Selinger 2001-2017
</metadata>
<g transform="translate(0.000000,512.000000) scale(0.100000,-0.100000)"
fill="#000000" stroke="none">
<path d="M743 5105 c-349 -64 -624 -319 -715 -665 l-23 -85 0 -1795 0 -1795
23 -85 c85 -321 331 -567 652 -652 l85 -23 1795 0 1795 0 85 23 c321 85 567
331 652 652 l23 85 0 1795 0 1795 -23 85 c-84 318 -325 562 -647 652 l-80 23
-1775 2 c-1425 1 -1789 -1 -1847 -12z m1245 -2047 l2 -248 300 0 300 0 2 248
3 247 48 3 47 3 0 -540 0 -541 -50 0 -50 0 0 245 0 245 -300 0 -300 0 0 -245
0 -245 -55 0 -55 0 0 533 c0 294 3 537 7 541 4 4 28 6 53 4 l45 -3 3 -247z
m1090 -290 l2 -538 -55 0 -55 0 0 533 c0 294 3 537 7 541 4 4 28 6 53 4 l45
-3 3 -537z m997 492 l0 -45 -167 -3 -168 -2 0 -490 0 -490 -55 0 -55 0 0 490
0 490 -167 2 -168 3 -3 33 c-6 66 -31 62 395 60 l388 -3 0 -45z m-2638 -374
c133 -11 219 -65 267 -165 28 -60 31 -75 31 -166 0 -89 -3 -106 -28 -157 -67
-136 -168 -177 -439 -178 l-118 0 -2 -202 -3 -203 -50 0 -50 0 -3 537 -2 537
127 3 c132 3 163 2 270 -6z"/>
<path d="M1150 2563 l0 -240 78 -6 c108 -8 243 7 298 33 82 40 120 118 112
231 -7 96 -40 149 -115 186 -55 26 -67 28 -215 32 l-158 3 0 -239z"/>
</g>
</svg>
